# xmcd
#
# Track frame offsets:
#	150
#	13820
#	33310
#	48312
#	64560
#	83932
#	97215
#	108232
#	123285
#	139870
#	156262
#
# Disc length: 2333 seconds
# Revision: 1
# Processed by: cddbd v1.5.2PL0 Copyright (c) Steve Scherf et al.
# Submitted via: dBpowerAMP V12.0
#
DISCID=8f091b0b
DTITLE=Zezé Motta - Divina Saudade
DYEAR=2000
DGENRE=MPB
TTITLE0=Canção De Amor
TTITLE1=Consolação - Tem Dó
TTITLE2=Chega De Saudade
TTITLE3=A Noite Do Meu Bem
TTITLE4=Prece - Feitio De Coração
TTITLE5=Noites Cariocas - Lamento
TTITLE6=Estrada Branca
TTITLE7=Molambo
TTITLE8=Barracão - Samba Triste
TTITLE9=Momentos - Tudo é Magnífico
TTITLE10=O Amor E A Rosa - Tristeza
EXTD=
EXTT0=
EXTT1=
EXTT2=
EXTT3=
EXTT4=
EXTT5=
EXTT6=
EXTT7=
EXTT8=
EXTT9=
EXTT10=
PLAYORDER=
